# Blender v3.6.22 OBJ File: 'ghibli-style-landscape.blend'
# www.blender.org
mtllib ghibli-style-landscape.mtl
o grass_emitter_Plane
v -10.731582 0.217220 7.670916
v 10.876685 -0.809154 7.640314
v -10.526196 0.539226 -7.586241
v 10.666307 0.212860 -7.681162
v 0.000000 0.000000 7.696614
v -0.000009 0.786486 -7.593467
v -10.391403 0.770195 0.021155
v 10.461946 -0.206446 0.007263
v 0.004102 0.047407 0.054560
v 10.393458 0.008450 -3.775138
v -0.024644 0.971512 -3.652890
v -10.253550 1.091362 -3.753019
v -10.725307 0.772553 3.769284
v 10.837805 -0.584711 3.813060
v 0.029639 0.028370 3.853400
v 10.668553 -0.324347 1.911687
v 0.030662 -0.062372 1.936755
v -10.588509 0.783647 1.887250
v -5.336759 1.189153 -7.564436
v -5.364139 0.050179 7.692255
v -4.950707 1.688766 0.161726
v -4.959024 1.836179 -3.607693
v -5.334635 0.489020 3.849719
v -5.174849 1.218489 1.987513
v 5.455578 -0.486541 7.662772
v 5.407253 0.657555 -7.599123
v 5.110563 -0.303705 0.099432
v 5.026947 0.633903 -3.579024
v 5.516349 -0.678052 3.823314
v 5.370588 -0.637468 1.932529
v -2.681899 0.000975 7.696862
v -2.756596 0.801122 -7.597383
v -2.459444 0.730154 0.114361
v -2.474360 1.415533 -3.636368
v -2.665226 0.556825 3.870589
v -2.595988 0.775050 1.972737
v 2.753481 0.768053 -7.594363
v 2.535542 -0.160516 0.081666
v 2.464624 0.828116 -3.612824
v 2.764188 -0.256647 3.840974
v 2.719249 -0.415698 1.932526
v 2.695490 -0.066939 7.691549
v 8.205568 -0.867417 7.636353
v 8.026656 0.435649 -7.635524
v 7.745880 -0.399642 0.061076
v 7.656456 0.253908 -3.645030
v 8.212273 -0.859345 3.806363
v 8.015898 -0.643961 1.915403
v -7.861880 1.544647 -7.537694
v -7.581525 1.282228 0.113648
v -7.496830 1.928586 -3.641950
v -8.017424 0.835488 3.797534
v -7.836380 1.030722 1.936149
v -8.049060 0.194845 7.673816
v -10.266503 0.878752 -1.887895
v 10.332511 -0.086999 -1.881837
v -0.022376 0.553168 -1.787754
v -4.855437 1.767150 -1.700497
v 4.958054 0.242760 -1.714806
v -2.406871 1.167701 -1.749143
v 2.417030 0.394892 -1.753839
v 7.587947 -0.025778 -1.774615
v -7.455182 1.623709 -1.763396
v 10.544322 0.146164 -5.728889
v -0.009593 1.051583 -5.611848
v -10.342475 0.985338 -5.634760
v -5.149523 1.750500 -5.562501
v 5.244912 0.754634 -5.566654
v -2.631211 1.270413 -5.602842
v 2.623894 0.988052 -5.578949
v 7.864376 0.408946 -5.626045
v -7.642493 1.987920 -5.550029
v -10.736365 0.594828 5.704307
v 10.883725 -0.833560 5.715644
v 0.004515 0.030607 5.773823
v -5.358426 0.289513 5.759623
v 5.508067 -0.637297 5.732265
v -2.675569 0.044270 5.782337
v 2.727165 -0.125467 5.763953
v 8.245192 -0.992539 5.707507
v -8.048373 0.580447 5.718048
vt 0.875000 0.875000
vt 1.000000 0.875000
vt 1.000000 1.000000
vt 0.875000 1.000000
vt 0.375000 0.875000
vt 0.500000 0.875000
vt 0.500000 1.000000
vt 0.375000 1.000000
vt 0.375000 0.375000
vt 0.500000 0.375000
vt 0.500000 0.500000
vt 0.375000 0.500000
vt 0.875000 0.375000
vt 1.000000 0.375000
vt 1.000000 0.500000
vt 0.875000 0.500000
vt 0.375000 0.625832
vt 0.500000 0.625832
vt 0.500000 0.750000
vt 0.375000 0.750000
vt 0.875000 0.625832
vt 1.000000 0.625832
vt 1.000000 0.750000
vt 0.875000 0.750000
vt 0.875000 0.125000
vt 1.000000 0.125000
vt 1.000000 0.250000
vt 0.875000 0.250000
vt 0.375000 0.125000
vt 0.500000 0.125000
vt 0.500000 0.250000
vt 0.375000 0.250000
vt 0.125000 0.250000
vt 0.250000 0.250000
vt 0.250000 0.375000
vt 0.125000 0.375000
vt 0.125000 0.125000
vt 0.250000 0.125000
vt 0.125000 0.625832
vt 0.250000 0.625832
vt 0.250000 0.750000
vt 0.125000 0.750000
vt 0.250000 0.500000
vt 0.125000 0.500000
vt 0.125000 0.875000
vt 0.250000 0.875000
vt 0.250000 1.000000
vt 0.125000 1.000000
vt 0.625000 0.250000
vt 0.750000 0.250000
vt 0.750000 0.375000
vt 0.625000 0.375000
vt 0.625000 0.125000
vt 0.750000 0.125000
vt 0.625000 0.625832
vt 0.750000 0.625832
vt 0.750000 0.750000
vt 0.625000 0.750000
vt 0.750000 0.500000
vt 0.625000 0.500000
vt 0.625000 0.875000
vt 0.750000 0.875000
vt 0.750000 1.000000
vt 0.625000 1.000000
vt 0.000000 0.875000
vt 0.000000 1.000000
vt 0.000000 0.375000
vt 0.000000 0.500000
vt 0.000000 0.625832
vt 0.000000 0.750000
vt 0.000000 0.125000
vt 0.000000 0.250000
vt 0.000000 0.000000
vt 0.125000 0.000000
vt 0.750000 0.000000
vt 0.875000 0.000000
vt 0.500000 0.000000
vt 0.625000 0.000000
vt 0.250000 0.000000
vt 0.375000 0.000000
vt 1.000000 0.000000
vn 0.0917 0.9953 0.0300
vn 0.0425 0.9823 -0.1827
vn 0.2865 0.9578 0.0250
vn -0.0934 0.9898 0.1072
vn 0.2127 0.9627 0.1670
vn 0.0599 0.9931 0.1010
vn -0.0820 0.9915 0.1013
vn 0.1001 0.9861 0.1322
vn -0.1109 0.9847 0.1342
vn 0.2488 0.9679 0.0369
vn 0.0241 0.9697 0.2430
vn 0.1149 0.9863 0.1187
vn -0.0118 0.9950 0.0987
vn -0.1131 0.9774 0.1785
vn 0.1116 0.9609 -0.2533
vn 0.1180 0.9923 -0.0369
vn 0.1658 0.9853 -0.0422
vn 0.0630 0.9740 0.2176
vn 0.0684 0.9864 0.1495
vn 0.0650 0.9952 -0.0733
vn 0.0689 0.9664 0.2478
vn 0.0311 0.9826 0.1834
vn 0.2031 0.9765 0.0724
vn 0.2656 0.9544 0.1362
vn 0.1586 0.9530 -0.2582
vn 0.0158 0.9927 -0.1199
vn 0.1061 0.9902 0.0908
vn 0.0562 0.9731 0.2232
vn 0.0804 0.9962 -0.0333
vn 0.1164 0.9910 -0.0661
vn 0.0355 0.9973 0.0643
vn 0.0984 0.9949 0.0235
vn 0.1246 0.9758 0.1799
vn 0.0208 0.9882 0.1519
vn 0.1076 0.9942 -0.0087
vn -0.3415 0.9237 -0.1736
vn -0.1363 0.9896 0.0472
vn -0.2761 0.9518 0.1337
vn -0.0098 0.9937 0.1114
vn -0.0573 0.9971 0.0501
vn -0.2208 0.9701 0.1007
vn 0.0715 0.9686 0.2382
vn 0.0673 0.9593 0.2741
vn 0.3002 0.9432 0.1425
vn 0.0521 0.9571 0.2851
vn -0.1062 0.9888 0.1047
vn -0.0200 0.9909 0.1328
vn 0.2555 0.9365 0.2402
vn -0.3197 0.9475 0.0081
vn 0.1384 0.9869 0.0834
vn 0.0394 0.9973 0.0627
vn 0.1757 0.9817 -0.0733
vn 0.0813 0.9936 0.0783
vn 0.0655 0.9978 -0.0125
vn 0.1295 0.9914 -0.0211
vn 0.0966 0.9919 0.0826
vn 0.0061 0.9816 0.1910
vn 0.1320 0.9889 -0.0675
vn 0.0411 0.9991 -0.0069
vn 0.0543 0.9958 0.0733
vn 0.1650 0.9850 -0.0498
vn 0.0780 0.9843 0.1583
vn 0.0028 0.9998 0.0193
vn -0.0408 0.9984 -0.0392
usemtl grass
s off
f 71/1/1 64/2/1 4/3/1 44/4/1
f 69/5/2 65/6/2 6/7/2 32/8/2
f 36/9/3 17/10/3 9/11/3 33/12/3
f 48/13/4 16/14/4 8/15/4 45/16/4
f 60/17/5 57/18/5 11/19/5 34/20/5
f 62/21/6 56/22/6 10/23/6 46/24/6
f 80/25/7 74/26/7 14/27/7 47/28/7
f 78/29/8 75/30/8 15/31/8 35/32/8
f 47/28/9 14/27/9 16/14/9 48/13/9
f 35/32/10 15/31/10 17/10/10 36/9/10
f 52/33/11 23/34/11 24/35/11 53/36/11
f 81/37/12 76/38/12 23/34/12 52/33/12
f 63/39/13 58/40/13 22/41/13 51/42/13
f 53/36/14 24/35/14 21/43/14 50/44/14
f 72/45/15 67/46/15 19/47/15 49/48/15
f 40/49/16 29/50/16 30/51/16 41/52/16
f 79/53/17 77/54/17 29/50/17 40/49/17
f 61/55/18 59/56/18 28/57/18 39/58/18
f 41/52/19 30/51/19 27/59/19 38/60/19
f 70/61/20 68/62/20 26/63/20 37/64/20
f 23/34/21 35/32/21 36/9/21 24/35/21
f 76/38/22 78/29/22 35/32/22 23/34/22
f 58/40/23 60/17/23 34/20/23 22/41/23
f 24/35/24 36/9/24 33/12/24 21/43/24
f 67/46/25 69/5/25 32/8/25 19/47/25
f 65/6/26 70/61/26 37/64/26 6/7/26
f 17/10/27 41/52/27 38/60/27 9/11/27
f 57/18/28 61/55/28 39/58/28 11/19/28
f 75/30/29 79/53/29 40/49/29 15/31/29
f 15/31/30 40/49/30 41/52/30 17/10/30
f 29/50/31 47/28/31 48/13/31 30/51/31
f 77/54/32 80/25/32 47/28/32 29/50/32
f 59/56/33 62/21/33 46/24/33 28/57/33
f 30/51/34 48/13/34 45/16/34 27/59/34
f 68/62/35 71/1/35 44/4/35 26/63/35
f 66/65/36 72/45/36 49/48/36 3/66/36
f 18/67/37 53/36/37 50/44/37 7/68/37
f 55/69/38 63/39/38 51/42/38 12/70/38
f 73/71/39 81/37/39 52/33/39 13/72/39
f 13/72/40 52/33/40 53/36/40 18/67/40
f 7/68/41 50/44/41 63/39/41 55/69/41
f 27/59/42 45/16/42 62/21/42 59/56/42
f 9/11/43 38/60/43 61/55/43 57/18/43
f 21/43/44 33/12/44 60/17/44 58/40/44
f 38/60/45 27/59/45 59/56/45 61/55/45
f 50/44/46 21/43/46 58/40/46 63/39/46
f 45/16/47 8/15/47 56/22/47 62/21/47
f 33/12/48 9/11/48 57/18/48 60/17/48
f 12/70/49 51/42/49 72/45/49 66/65/49
f 28/57/50 46/24/50 71/1/50 68/62/50
f 11/19/51 39/58/51 70/61/51 65/6/51
f 22/41/52 34/20/52 69/5/52 67/46/52
f 39/58/53 28/57/53 68/62/53 70/61/53
f 51/42/54 22/41/54 67/46/54 72/45/54
f 34/20/55 11/19/55 65/6/55 69/5/55
f 46/24/56 10/23/56 64/2/56 71/1/56
f 1/73/57 54/74/57 81/37/57 73/71/57
f 25/75/58 43/76/58 80/25/58 77/54/58
f 5/77/59 42/78/59 79/53/59 75/30/59
f 20/79/60 31/80/60 78/29/60 76/38/60
f 42/78/61 25/75/61 77/54/61 79/53/61
f 54/74/62 20/79/62 76/38/62 81/37/62
f 31/80/63 5/77/63 75/30/63 78/29/63
f 43/76/64 2/81/64 74/26/64 80/25/64
o cloud_Plane.001
v -94.824234 6.233179 -37.577900
v -36.329971 0.352495 -87.148285
v -87.452301 62.007942 -35.495571
v -28.958038 56.127258 -85.065948
vt 0.000000 0.000000
vt 1.000000 0.000000
vt 1.000000 1.000000
vt 0.000000 1.000000
vn 0.6358 -0.1125 0.7636
usemtl cloud
s off
f 82/82/65 83/83/65 85/84/65 84/85/65
o foliage.001_Plane.003
v -11.279328 -0.475710 1.103984
v -7.552282 -0.426856 -1.992039
v -10.966123 4.370770 1.557501
v -7.239076 4.419623 -1.538523
vt 0.000000 0.000000
vt 1.000000 0.000000
vt 1.000000 1.000000
vt 0.000000 1.000000
vn 0.6358 -0.1125 0.7636
usemtl foliage
s off
f 86/86/66 87/87/66 89/88/66 88/89/66
o foliage_Plane.004
v -9.009012 0.492315 0.787612
v -5.281966 0.541169 -2.308411
v -8.695807 5.338795 1.241129
v -4.968760 5.387648 -1.854895
vt 0.000000 0.000000
vt 1.000000 0.000000
vt 1.000000 1.000000
vt 0.000000 1.000000
vn 0.6358 -0.1125 0.7636
usemtl cloud.003
s off
f 90/90/67 91/91/67 93/92/67 92/93/67
o flower_Plane.005
v -1.900969 0.406257 0.069773
v -1.513635 0.411334 -0.251981
v -1.868419 0.909927 0.116905
v -1.481086 0.915004 -0.204850
vt 0.000000 0.000000
vt 1.000000 0.000000
vt 1.000000 1.000000
vt 0.000000 1.000000
vn 0.6358 -0.1125 0.7636
usemtl flowers
s off
f 94/94/68 95/95/68 97/96/68 96/97/68
